<svg width="24" height="24" viewBox="0 0 24 24" fill="none" xmlns="http://www.w3.org/2000/svg">
<path d="M11 6.99994V12.9999L16.2 16.0999L17 14.8999L12.5 12.1999V6.99994H11ZM20 11.9999V17.9999H22V11.9999H20ZM20 19.9999V21.9999H22V19.9999H20ZM18 19.9999C16.3 21.2999 14.3 21.9999 12 21.9999C6.5 21.9999 2 17.4999 2 11.9999C2 6.49994 6.5 1.99994 12 1.99994C16.8 1.99994 20.9 5.39994 21.8 9.99994H19.7C18.8 6.59994 15.7 3.99994 12 3.99994C7.6 3.99994 4 7.59994 4 11.9999C4 16.3999 7.6 19.9999 12 19.9999C14.4 19.9999 16.5 18.8999 18 17.2999V19.9999Z" fill="#DE4313"/>
</svg>
