<svg width="32" height="33" viewBox="0 0 32 33" fill="none" xmlns="http://www.w3.org/2000/svg">
<path d="M4.63543 21.3036L4.63561 21.304C5.28718 22.815 6.16687 24.1193 7.27379 25.2262C8.38072 26.3332 9.68507 27.2129 11.196 27.8644L11.1964 27.8646C12.688 28.5086 14.2858 28.8333 16 28.8333C17.7142 28.8333 19.312 28.5086 20.8036 27.8646L20.804 27.8644C22.315 27.2129 23.6193 26.3332 24.7262 25.2262C25.8332 24.1193 26.7129 22.815 27.3644 21.304L27.3646 21.3036C28.0086 19.812 28.3334 18.2142 28.3334 16.5C28.3334 14.7858 28.0086 13.188 27.3646 11.6964L27.3644 11.696C26.7129 10.1851 25.8332 8.8807 24.7262 7.77378C23.6193 6.66686 22.315 5.78672 20.804 5.13426L4.63543 21.3036ZM4.63543 21.3036C3.9914 19.812 3.66669 18.2142 3.66669 16.5C3.66669 14.7858 3.9914 13.188 4.63543 11.6964L4.63561 11.696M4.63543 21.3036L4.63561 11.696M4.63561 11.696C5.28718 10.1851 6.16687 8.8807 7.27379 7.77378M4.63561 11.696L7.27379 7.77378M7.27379 7.77378C8.38081 6.66676 9.68531 5.78655 11.1964 5.13408M7.27379 7.77378L11.1964 5.13408M11.1964 5.13408C12.688 4.49094 14.2858 4.16667 16 4.16667M11.1964 5.13408L16 4.16667M16 4.16667C17.7142 4.16667 19.3121 4.49094 20.8036 5.13408L16 4.16667Z" stroke="#BEBEBE" stroke-width="2"/>
</svg>
