<svg width="32" height="33" viewBox="0 0 32 33" fill="none" xmlns="http://www.w3.org/2000/svg">
<path d="M14.1334 22.6333L23.5334 13.2333L21.6667 11.3667L14.1334 18.9L10.3334 15.1L8.46669 16.9667L14.1334 22.6333ZM16 29.8333C14.1556 29.8333 12.4222 29.4831 10.8 28.7827C9.1778 28.0831 7.76669 27.1333 6.56669 25.9333C5.36669 24.7333 4.41691 23.3222 3.71735 21.7C3.01691 20.0778 2.66669 18.3444 2.66669 16.5C2.66669 14.6556 3.01691 12.9222 3.71735 11.3C4.41691 9.67778 5.36669 8.26666 6.56669 7.06666C7.76669 5.86666 9.1778 4.91644 10.8 4.216C12.4222 3.51644 14.1556 3.16666 16 3.16666C17.8445 3.16666 19.5778 3.51644 21.2 4.216C22.8222 4.91644 24.2334 5.86666 25.4334 7.06666C26.6334 8.26666 27.5831 9.67778 28.2827 11.3C28.9831 12.9222 29.3334 14.6556 29.3334 16.5C29.3334 18.3444 28.9831 20.0778 28.2827 21.7C27.5831 23.3222 26.6334 24.7333 25.4334 25.9333C24.2334 27.1333 22.8222 28.0831 21.2 28.7827C19.5778 29.4831 17.8445 29.8333 16 29.8333Z" fill="#47BA68"/>
</svg>
